<?xml version="1.0" encoding="utf-8"?>
<!-- Generator: Adobe Illustrator 19.2.1, SVG Export Plug-In . SVG Version: 6.00 Build 0)  -->
<!DOCTYPE svg PUBLIC "-//W3C//DTD SVG 1.1//EN" "http://www.w3.org/Graphics/SVG/1.1/DTD/svg11.dtd">
<svg version="1.1" id="Layer_1" xmlns="http://www.w3.org/2000/svg" xmlns:xlink="http://www.w3.org/1999/xlink" x="0px" y="0px"
	 viewBox="0 0 379.5 196" style="enable-background:new 0 0 379.5 196;" xml:space="preserve">
<style type="text/css">
	.st0{fill:#495057;}
</style>
<path class="st0" d="M359.5,117.5h-35c-11,0-20-9-20-20s9-20,20-20h35c11,0,20,9,20,20S370.5,117.5,359.5,117.5z M277.2,192.5
	c-1.8,0.5-3.7,0.8-5.5,0.8c-8.7,0-16.7-5.8-19.2-14.6l-7.3-29.2h-47l-7.3,29.2c-3,10.6-14.1,16.8-24.7,13.8
	c-10.6-3-16.8-14.1-13.8-24.7l40.5-143C196.6,12,208.4,3,221.8,3c13.3,0,25.2,9,28.8,21.8l40.5,143
	C294,178.4,287.8,189.5,277.2,192.5z M221.8,55l-15.2,61h30.3L221.8,55z M72.5,195.5C32.5,195.5,0,163,0,123V73
	C0,33,32.5,0.5,72.5,0.5C112.5,0.5,145,33,145,73v50C145,163,112.5,195.5,72.5,195.5z M105,73c0-17.9-14.6-32.5-32.5-32.5
	C54.6,40.5,40,55.1,40,73v50c0,17.9,14.6,32.5,32.5,32.5c17.9,0,32.5-14.6,32.5-32.5V73z"/>
</svg>
